<svg xmlns="http://www.w3.org/2000/svg" viewBox="0 0 24 24" fill="currentColor">
  <path d="M12 2C6.48 2 2 6.48 2 12s4.48 10 10 10 10-4.48 10-10S17.52 2 12 2zm-2 15l-5-5 1.41-1.41L10 14.17l7.59-7.59L19 8l-9 9z"/>
  <path d="M12 2C6.48 2 2 6.48 2 12s4.48 10 10 10 10-4.48 10-10S17.52 2 12 2zm0 18c-4.41 0-8-3.59-8-8s3.59-8 8-8 8 3.59 8 8-3.59 8-8 8z"/>
  <circle cx="9" cy="10" r="2"/>
  <circle cx="15" cy="10" r="2"/>
  <path d="M12 16c-1.5 0-3-.5-4-1.5V14c0 .55.45 1 1 1h6c.55 0 1-.45 1-1v-.5c-1 .5-2.5 1-4 1z"/>
</svg>