<?xml version="1.0" encoding="UTF-8" standalone="no"?>
<svg
   xmlns:dc="http://purl.org/dc/elements/1.1/"
   xmlns:cc="http://creativecommons.org/ns#"
   xmlns:rdf="http://www.w3.org/1999/02/22-rdf-syntax-ns#"
   xmlns:svg="http://www.w3.org/2000/svg"
   xmlns="http://www.w3.org/2000/svg"
   version="1.1"
   id="svg4822"
   viewBox="0 0 1226.9687 786.04917"
   height="221.84055mm"
   width="346.27783mm">
  <defs
     id="defs4824" />
  <metadata
     id="metadata4827">
    <rdf:RDF>
      <cc:Work
         rdf:about="">
        <dc:format>image/svg+xml</dc:format>
        <dc:type
           rdf:resource="http://purl.org/dc/dcmitype/StillImage" />
        <dc:title></dc:title>
      </cc:Work>
    </rdf:RDF>
  </metadata>
  <g
     transform="translate(149.91545,66.882448)"
     id="layer1">
    <path
       id="path5442"
       d="M 357.22528,718.0316 C 298.60105,709.64395 232.55442,676.12297 163.19269,619.55376 134.03882,595.77676 65.999858,526.37004 37.059055,490.8845 -8.9902925,434.42144 -58.773231,362.85125 -96.69657,298.59137 c -19.04399,-32.26935 -53.90926,-94.68765 -53.20847,-95.25748 0.24053,-0.19547 9.7549,-0.98521 21.14321,-1.75474 177.528986,-11.99655 344.24174,-93.65494 513.08798,-251.318086 11.68308,-10.909288 21.03156,-18.132429 22.04505,-17.033259 6.18505,6.707789 52.72754,126.347445 73.71748,189.494275 48.7721,146.7276 69.4586,259.76255 66.6038,363.93621 -1.35362,49.39438 -5.90694,78.77501 -17.71926,114.33461 -11.05966,33.29365 -22.70095,53.20585 -43.80232,74.92264 -27.90161,28.71506 -55.17861,40.90278 -96.28287,43.02012 -10.24947,0.52793 -24.49772,0.11974 -31.66275,-0.90406 z M 264.78317,607.01319 c 9.36069,-16.33473 33.69179,-43.68501 50.84743,-57.15701 25.9992,-20.4167 63.9192,-36.51449 104.12455,-44.20297 10.06128,-1.92398 33.78758,-4.63243 52.72515,-6.01874 l 34.43189,-2.52048 -22.77659,-9.80934 c -45.8987,-19.76756 -77.38227,-27.40413 -112.84767,-27.37208 -37.1499,0.0352 -61.70334,8.80047 -81.64514,29.1517 -22.45946,22.9206 -31.97934,51.29278 -33.75095,100.58816 -0.6161,17.14262 -0.65048,31.16839 -0.0763,31.16839 0.57404,0 4.60953,-6.22244 8.96773,-13.82763 z M 117.63951,389.71382 c 26.73989,-12.86979 43.05342,-46.15534 48.24119,-98.42972 l 1.77375,-17.87287 -10.50228,12.59009 c -33.06858,39.64249 -71.283807,74.80909 -98.041887,90.22043 -6.564835,3.78106 -10.351823,7.17673 -9.253681,8.29745 3.939385,4.02026 29.101619,9.90214 42.935708,10.0366 11.12505,0.10812 16.90071,-1.01739 24.8472,-4.84198 z M 362.8708,269.7454 c 9.60645,-3.67227 21.0989,-13.03772 27.31743,-22.26162 5.86783,-8.7037 17.28691,-36.28359 15.69524,-37.90794 -0.42212,-0.4308 -7.54857,1.63452 -15.83657,4.5896 -33.48349,11.93862 -66.48691,17.52706 -116.07714,19.65528 l -32.09429,1.37732 18.38454,10.35686 c 45.07543,25.39294 78.71777,33.32414 102.61079,24.1905 z m 310.55147,445.08167 c -44.64146,-11.06179 -84.90195,-46.09153 -117.735,-102.43869 -10.13248,-17.38914 -11.89484,-24.05499 -8.61698,-32.59272 1.26839,-3.30378 3.36746,-0.6836 11.2004,13.98114 20.542,38.45862 48.12846,71.74822 74.20083,89.54132 61.47292,41.95194 130.78894,26.66957 198.896,-43.85163 79.26206,-82.07151 149.17278,-236.82814 199.31718,-441.21514 12.6924,-51.73352 35.2184,-162.462545 33.4231,-164.294682 -0.6136,-0.62608 -10.6941,0.891029 -22.4012,3.371363 -31.3071,6.632844 -81.05913,14.501716 -117.56864,18.594847 -44.62973,5.003495 -139.11232,5.003424 -179.10685,-1.4e-4 -88.14482,-11.027517 -170.78358,-38.00018 -235.95476,-77.013877 -7.92032,-4.741399 -15.00401,-8.240111 -15.74156,-7.77491 -0.73755,0.465166 -2.9282,21.5584503 -4.86812,46.873942 -1.93991,25.315491 -4.19693,52.684469 -5.01558,60.819945 l -1.48844,14.791776 -4.49103,-13.264665 c -4.17547,-12.33282 -4.35096,-15.079231 -2.49804,-39.092552 5.35157,-69.353956 7.48515,-85.932931 11.2486,-87.406756 1.49,-0.5835 11.25888,4.19914 21.70861,10.628138 61.62062,37.9109356 135.89634,64.522398 212.62222,76.178142 38.80955,5.89572 64.07294,7.60093 112.47858,7.591985 70.29257,-0.01409 141.22986,-7.902824 211.73941,-23.550269 15.6704,-3.477547 29.4139,-5.74097 30.5414,-5.029873 3.5725,2.253245 2.3396,11.24418 -10.288,75.023115 C 1015.3319,345.68325 940.58291,533.58248 849.34801,636.8501 793.10965,700.50581 729.46753,728.71443 673.42227,714.82707 Z m -4.57454,-166.02593 c -36.70606,-5.47726 -68.02668,-37.03808 -87.27942,-87.94881 -4.04891,-10.70667 -7.36164,-19.97597 -7.36164,-20.59845 0,-0.62254 5.75938,3.19498 12.79862,8.48336 39.47808,29.65882 84.28975,43.26347 133.25787,40.4566 26.20789,-1.50225 65.99245,-9.7019 94.0585,-19.38558 l 21.66671,-7.47569 -9.24312,9.7033 c -12.20336,12.81091 -37.25136,34.00873 -52.72574,44.62119 -36.48869,25.02424 -74.67391,36.69491 -105.17178,32.14408 z M 897.22017,279.15054 C 870.2314,260.37302 834.29266,244.28038 794.7255,233.2555 c -11.3883,-3.17319 -22.10365,-6.27855 -23.81189,-6.90079 -3.83862,-1.39824 13.30201,-7.73218 37.27079,-13.77262 22.88481,-5.76724 55.36765,-6.23614 67.18301,-0.96978 12.91861,5.75809 21.51598,13.53898 26.86699,24.3155 5.9076,11.89745 10.05098,31.84159 9.11807,43.88998 l -0.6734,8.69682 -13.4589,-9.36407 z m -362.35488,-37.3622 c 0,-6.69066 8.52989,-30.47155 14.20217,-39.59473 21.25764,-34.19066 62.06808,-33.87482 121.42209,0.93963 l 18.63539,10.9307 -33.78949,2.54222 c -48.30591,3.63441 -81.91992,11.0017 -112.70542,24.70209 -6.45398,2.87221 -7.76474,2.95325 -7.76474,0.48009 z"
       style="fill:#000000" />
  </g>
</svg>
